<svg width="18" height="18" viewBox="0 0 18 18" fill="none" xmlns="http://www.w3.org/2000/svg">
<path d="M1.28571 6.42857V16.7143H16.7143V2.57143H14.1429V3.21429C14.1429 3.38478 14.0751 3.5483 13.9546 3.66885C13.834 3.78941 13.6705 3.85714 13.5 3.85714C13.3295 3.85714 13.166 3.78941 13.0454 3.66885C12.9249 3.5483 12.8571 3.38478 12.8571 3.21429V2.57143H5.14286V3.21429C5.14286 3.38478 5.07513 3.5483 4.95457 3.66885C4.83401 3.78941 4.6705 3.85714 4.5 3.85714C4.3295 3.85714 4.16599 3.78941 4.04543 3.66885C3.92487 3.5483 3.85714 3.38478 3.85714 3.21429V2.57143H1.28571V5.14286H16.7143V6.42857H1.28571ZM5.14286 1.28571H12.8571V0.642857C12.8571 0.472361 12.9249 0.308848 13.0454 0.188288C13.166 0.0677294 13.3295 0 13.5 0C13.6705 0 13.834 0.0677294 13.9546 0.188288C14.0751 0.308848 14.1429 0.472361 14.1429 0.642857V1.28571H17.3571C17.5276 1.28571 17.6912 1.35344 17.8117 1.474C17.9323 1.59456 18 1.75808 18 1.92857V17.3571C18 17.5276 17.9323 17.6912 17.8117 17.8117C17.6912 17.9323 17.5276 18 17.3571 18H0.642857C0.472361 18 0.308848 17.9323 0.188288 17.8117C0.0677294 17.6912 0 17.5276 0 17.3571V1.92857C0 1.75808 0.0677294 1.59456 0.188288 1.474C0.308848 1.35344 0.472361 1.28571 0.642857 1.28571H3.85714V0.642857C3.85714 0.472361 3.92487 0.308848 4.04543 0.188288C4.16599 0.0677294 4.3295 0 4.5 0C4.6705 0 4.83401 0.0677294 4.95457 0.188288C5.07513 0.308848 5.14286 0.472361 5.14286 0.642857V1.28571ZM4.5 9H5.78572C5.95621 9 6.11972 9.06773 6.24028 9.18829C6.36084 9.30885 6.42857 9.47236 6.42857 9.64286C6.42857 9.81335 6.36084 9.97687 6.24028 10.0974C6.11972 10.218 5.95621 10.2857 5.78572 10.2857H4.5C4.3295 10.2857 4.16599 10.218 4.04543 10.0974C3.92487 9.97687 3.85714 9.81335 3.85714 9.64286C3.85714 9.47236 3.92487 9.30885 4.04543 9.18829C4.16599 9.06773 4.3295 9 4.5 9ZM4.5 12.8571H5.78572C5.95621 12.8571 6.11972 12.9249 6.24028 13.0454C6.36084 13.166 6.42857 13.3295 6.42857 13.5C6.42857 13.6705 6.36084 13.834 6.24028 13.9546C6.11972 14.0751 5.95621 14.1429 5.78572 14.1429H4.5C4.3295 14.1429 4.16599 14.0751 4.04543 13.9546C3.92487 13.834 3.85714 13.6705 3.85714 13.5C3.85714 13.3295 3.92487 13.166 4.04543 13.0454C4.16599 12.9249 4.3295 12.8571 4.5 12.8571ZM8.35714 9H9.64286C9.81335 9 9.97687 9.06773 10.0974 9.18829C10.218 9.30885 10.2857 9.47236 10.2857 9.64286C10.2857 9.81335 10.218 9.97687 10.0974 10.0974C9.97687 10.218 9.81335 10.2857 9.64286 10.2857H8.35714C8.18665 10.2857 8.02313 10.218 7.90257 10.0974C7.78202 9.97687 7.71429 9.81335 7.71429 9.64286C7.71429 9.47236 7.78202 9.30885 7.90257 9.18829C8.02313 9.06773 8.18665 9 8.35714 9ZM8.35714 12.8571H9.64286C9.81335 12.8571 9.97687 12.9249 10.0974 13.0454C10.218 13.166 10.2857 13.3295 10.2857 13.5C10.2857 13.6705 10.218 13.834 10.0974 13.9546C9.97687 14.0751 9.81335 14.1429 9.64286 14.1429H8.35714C8.18665 14.1429 8.02313 14.0751 7.90257 13.9546C7.78202 13.834 7.71429 13.6705 7.71429 13.5C7.71429 13.3295 7.78202 13.166 7.90257 13.0454C8.02313 12.9249 8.18665 12.8571 8.35714 12.8571ZM12.2143 9H13.5C13.6705 9 13.834 9.06773 13.9546 9.18829C14.0751 9.30885 14.1429 9.47236 14.1429 9.64286C14.1429 9.81335 14.0751 9.97687 13.9546 10.0974C13.834 10.218 13.6705 10.2857 13.5 10.2857H12.2143C12.0438 10.2857 11.8803 10.218 11.7597 10.0974C11.6392 9.97687 11.5714 9.81335 11.5714 9.64286C11.5714 9.47236 11.6392 9.30885 11.7597 9.18829C11.8803 9.06773 12.0438 9 12.2143 9ZM12.2143 12.8571H13.5C13.6705 12.8571 13.834 12.9249 13.9546 13.0454C14.0751 13.166 14.1429 13.3295 14.1429 13.5C14.1429 13.6705 14.0751 13.834 13.9546 13.9546C13.834 14.0751 13.6705 14.1429 13.5 14.1429H12.2143C12.0438 14.1429 11.8803 14.0751 11.7597 13.9546C11.6392 13.834 11.5714 13.6705 11.5714 13.5C11.5714 13.3295 11.6392 13.166 11.7597 13.0454C11.8803 12.9249 12.0438 12.8571 12.2143 12.8571Z" fill="#999999"/>
</svg>
