<svg width="18" height="15" viewBox="0 0 18 15" fill="none" xmlns="http://www.w3.org/2000/svg">
<path d="M16.5 0C16.9125 0 17.2656 0.146875 17.5594 0.440625C17.8531 0.734375 18 1.0875 18 1.5V12.9C18 13.3125 17.8531 13.6656 17.5594 13.9594C17.2656 14.2531 16.9125 14.4 16.5 14.4H1.5C1.0875 14.4 0.734375 14.2531 0.440625 13.9594C0.146875 13.6656 0 13.3125 0 12.9V1.5C0 1.0875 0.146875 0.734375 0.440625 0.440625C0.734375 0.146875 1.0875 0 1.5 0H16.5ZM1.5 1.2C1.41875 1.2 1.34844 1.22969 1.28906 1.28906C1.22969 1.34844 1.2 1.41875 1.2 1.5V3.6H16.8V1.5C16.8 1.41875 16.7703 1.34844 16.7109 1.28906C16.6516 1.22969 16.5812 1.2 16.5 1.2H1.5ZM16.5 13.2C16.5812 13.2 16.6516 13.1703 16.7109 13.1109C16.7703 13.0516 16.8 12.9813 16.8 12.9V7.2H1.2V12.9C1.2 12.9813 1.22969 13.0516 1.28906 13.1109C1.34844 13.1703 1.41875 13.2 1.5 13.2H16.5ZM2.4 12V10.8H4.8V12H2.4ZM6 12V10.8H9.6V12H6Z" fill="#999999"/>
</svg>
