<svg width="40" height="40" viewBox="0 0 40 40" fill="none" xmlns="http://www.w3.org/2000/svg">
<path fill-rule="evenodd" clip-rule="evenodd" d="M12.2203 10.2203C12.29 10.1505 12.3728 10.0951 12.4639 10.0573C12.555 10.0195 12.6527 10 12.7513 10C12.85 10 12.9477 10.0195 13.0388 10.0573C13.1299 10.0951 13.2127 10.1505 13.2823 10.2203L22.2823 19.2203C22.3522 19.29 22.4076 19.3728 22.4454 19.4639C22.4832 19.555 22.5027 19.6527 22.5027 19.7513C22.5027 19.85 22.4832 19.9477 22.4454 20.0388C22.4076 20.1299 22.3522 20.2127 22.2823 20.2823L13.2823 29.2823C13.1415 29.4232 12.9505 29.5023 12.7513 29.5023C12.5522 29.5023 12.3612 29.4232 12.2203 29.2823C12.0795 29.1415 12.0004 28.9505 12.0004 28.7513C12.0004 28.5522 12.0795 28.3612 12.2203 28.2203L20.6908 19.7513L12.2203 11.2823C12.1505 11.2127 12.0951 11.1299 12.0573 11.0388C12.0195 10.9477 12 10.85 12 10.7513C12 10.6527 12.0195 10.555 12.0573 10.4639C12.0951 10.3728 12.1505 10.29 12.2203 10.2203Z" fill="#9A9FA1"/>
<path fill-rule="evenodd" clip-rule="evenodd" d="M18.2203 10.2203C18.29 10.1505 18.3728 10.0951 18.4639 10.0573C18.555 10.0195 18.6527 10 18.7513 10C18.85 10 18.9477 10.0195 19.0388 10.0573C19.1299 10.0951 19.2127 10.1505 19.2823 10.2203L28.2823 19.2203C28.3522 19.29 28.4076 19.3728 28.4454 19.4639C28.4832 19.555 28.5027 19.6527 28.5027 19.7513C28.5027 19.85 28.4832 19.9477 28.4454 20.0388C28.4076 20.1299 28.3522 20.2127 28.2823 20.2823L19.2823 29.2823C19.1415 29.4232 18.9505 29.5023 18.7513 29.5023C18.5522 29.5023 18.3612 29.4232 18.2203 29.2823C18.0795 29.1415 18.0004 28.9505 18.0004 28.7513C18.0004 28.5522 18.0795 28.3612 18.2203 28.2203L26.6908 19.7513L18.2203 11.2823C18.1505 11.2127 18.0951 11.1299 18.0573 11.0388C18.0195 10.9477 18 10.85 18 10.7513C18 10.6527 18.0195 10.555 18.0573 10.4639C18.0951 10.3728 18.1505 10.29 18.2203 10.2203Z" fill="#9A9FA1"/>
</svg>
