<svg width="40" height="40" viewBox="0 0 40 40" fill="none" xmlns="http://www.w3.org/2000/svg">
<path d="M19.9575 11.7043C22.6178 11.7043 22.9301 11.7156 23.9816 11.7606C24.954 11.8019 25.4797 11.9558 25.8315 12.0872C26.298 12.2599 26.63 12.4626 26.9779 12.7929C27.3258 13.1233 27.5432 13.4386 27.7211 13.8816C27.8555 14.2157 28.0215 14.7149 28.065 15.6384C28.1124 16.637 28.1243 16.9335 28.1243 19.4599C28.1243 21.9863 28.1124 22.2829 28.065 23.2814C28.0215 24.2049 27.8594 24.7042 27.7211 25.0383C27.5392 25.4813 27.3258 25.7966 26.9779 26.1269C26.63 26.4573 26.298 26.6637 25.8315 26.8327C25.4797 26.9603 24.954 27.118 23.9816 27.1593C22.9301 27.2043 22.6178 27.2156 19.9575 27.2156C17.2971 27.2156 16.9849 27.2043 15.9334 27.1593C14.9609 27.118 14.4352 26.9641 14.0834 26.8327C13.6169 26.66 13.2849 26.4573 12.937 26.1269C12.5892 25.7966 12.3718 25.4813 12.1939 25.0383C12.0595 24.7042 11.8935 24.2049 11.85 23.2814C11.8025 22.2829 11.7907 21.9863 11.7907 19.4599C11.7907 16.9335 11.8025 16.637 11.85 15.6384C11.8935 14.7149 12.0555 14.2157 12.1939 13.8816C12.3757 13.4386 12.5892 13.1233 12.937 12.7929C13.2849 12.4626 13.6169 12.2561 14.0834 12.0872C14.4352 11.9596 14.9609 11.8019 15.9334 11.7606C16.9849 11.7118 17.3011 11.7043 19.9575 11.7043ZM19.9575 10C17.2537 10 16.9137 10.0113 15.8504 10.0563C14.791 10.1014 14.0676 10.2628 13.4351 10.4955C12.7789 10.7358 12.2255 11.0624 11.6721 11.5879C11.1187 12.1135 10.7787 12.6428 10.5218 13.2622C10.2767 13.8628 10.1067 14.5498 10.0593 15.5596C10.0119 16.5656 10 16.8885 10 19.4562C10 22.0239 10.0119 22.3467 10.0593 23.3565C10.1067 24.3626 10.2767 25.0495 10.5218 25.6539C10.7748 26.2771 11.1187 26.8026 11.6721 27.3282C12.2255 27.8537 12.7829 28.1766 13.4351 28.4206C14.0676 28.6533 14.791 28.8148 15.8543 28.8598C16.9177 28.9048 17.2537 28.9161 19.9614 28.9161C22.6692 28.9161 23.0052 28.9048 24.0685 28.8598C25.1279 28.8148 25.8513 28.6533 26.4877 28.4206C27.1439 28.1803 27.6973 27.8537 28.2507 27.3282C28.8042 26.8026 29.1441 26.2733 29.4011 25.6539C29.6461 25.0533 29.8161 24.3663 29.8636 23.3565C29.911 22.3467 29.9228 22.0276 29.9228 19.4562C29.9228 16.8847 29.911 16.5656 29.8636 15.5558C29.8161 14.5498 29.6461 13.8628 29.4011 13.2584C29.1481 12.6353 28.8042 12.1097 28.2507 11.5842C27.6973 11.0586 27.14 10.7358 26.4877 10.4918C25.8553 10.259 25.1319 10.0976 24.0685 10.0526C23.0012 10.0113 22.6613 10 19.9575 10Z" fill="white"/>
<path d="M19.9579 14.6016C17.1355 14.6016 14.8428 16.7751 14.8428 19.4592C14.8428 22.1432 17.1315 24.3168 19.9579 24.3168C22.7842 24.3168 25.073 22.1432 25.073 19.4592C25.073 16.7751 22.7842 14.6016 19.9579 14.6016ZM19.9579 22.6087C18.1237 22.6087 16.6374 21.1972 16.6374 19.4554C16.6374 17.7136 18.1237 16.3021 19.9579 16.3021C21.792 16.3021 23.2783 17.7136 23.2783 19.4554C23.2783 21.1972 21.792 22.6087 19.9579 22.6087Z" fill="white"/>
<path d="M25.2739 15.5408C25.9332 15.5408 26.4677 15.0332 26.4677 14.4071C26.4677 13.781 25.9332 13.2734 25.2739 13.2734C24.6146 13.2734 24.0801 13.781 24.0801 14.4071C24.0801 15.0332 24.6146 15.5408 25.2739 15.5408Z" fill="white"/>
</svg>
