<svg width="354" height="21" viewBox="0 0 354 21" fill="none" xmlns="http://www.w3.org/2000/svg">
<path d="M1.332 3.028V4.48H8.746C8.372 9.166 5.732 12.95 0.43 15.48L1.398 16.954C7.954 13.742 10.572 8.726 10.572 3.028H1.332ZM14.554 0.894V20.628H16.358V0.894H14.554ZM22.1643 9.628C25.3543 9.144 28.2583 7.56 29.3363 5.272C30.3923 7.56 33.2963 9.144 36.5083 9.628L37.1683 8.176C33.6923 7.714 30.5023 5.756 30.5023 3.358V3.336H36.6403V1.884H22.0323V3.336H28.1703V3.358C28.1703 5.756 24.9803 7.714 21.4823 8.176L22.1643 9.628ZM24.4523 14.6H22.6483V20.188H36.2883V18.714H24.4523V14.6ZM20.3603 11.058V12.51H28.5663V16.514H30.3703V12.51H38.2683V11.058H20.3603ZM45.1086 14.622C43.5246 14.622 42.5346 12.62 42.5346 9.386C42.5346 6.218 43.5246 4.216 45.1086 4.216C46.6486 4.216 47.6606 6.218 47.6606 9.386C47.6606 12.62 46.6486 14.622 45.1086 14.622ZM51.7746 8.572H49.2886C49.0686 4.854 47.4846 2.544 45.1086 2.544C42.5346 2.544 40.8846 5.184 40.8846 9.386C40.8846 13.654 42.5346 16.294 45.1086 16.294C47.5286 16.294 49.1346 13.918 49.2886 10.046H51.7746V19.66H53.4906V1.334H51.7746V8.572ZM55.6906 0.894V20.628H57.4066V0.894H55.6906ZM74.3699 9.232H68.8259V3.666H74.3699V9.232ZM76.1299 2.236H67.0659V10.684H76.1299V2.236ZM81.8939 14.776V13.324H69.0019V14.776H74.5019C74.2819 16.888 71.4879 18.692 68.2319 19.176L68.8919 20.562C71.8179 20.1 74.3479 18.692 75.4699 16.69C76.5919 18.67 79.1219 20.1 81.9819 20.584L82.6639 19.198C79.4519 18.692 76.6139 16.844 76.3939 14.776H81.8939ZM81.5639 5.624V0.894H79.7599V12.158H81.5639V7.12H84.4899V5.624H81.5639ZM102.308 6.834H90.6922V1.62H88.8882V8.308H102.308V6.834ZM90.5602 14.38H88.7562V20.144H102.418V18.67H90.5602V14.38ZM86.4682 10.948V12.4H104.354V10.948H86.4682ZM122.22 7.186V8.66H126.532V15.546H128.358V0.915999H126.532V7.186H122.22ZM113.508 2.478V3.952H120.394C120.328 4.766 120.174 5.536 119.91 6.262L112.496 6.592L112.826 8.066L119.25 7.582C118.062 9.474 115.928 11.036 112.606 12.092L113.354 13.544C119.69 11.432 122.264 7.604 122.264 2.478H113.508ZM117.754 18.714V14.094H115.95V20.188H128.93V18.714H117.754ZM148.992 0.915999H147.254V15.7H148.992V0.915999ZM143.448 15.194H145.164V1.312H143.448V6.482H140.83V7.956H143.448V15.194ZM141.578 10.442C139.532 10.86 137.75 10.97 134.978 10.97V8.11H139.906V6.702H134.978V3.996H140.698V2.544H133.24V12.422H134.494C137.64 12.422 139.488 12.334 141.754 11.894L141.578 10.442ZM137.97 18.714V14.072H136.166V20.188H149.564V18.714H137.97ZM154.358 13.324C157.504 12.686 160.298 11.014 161.53 8.484C162.74 11.014 165.534 12.686 168.658 13.324L169.384 11.85C165.6 11.19 162.432 8.748 162.432 5.514H168.768V4.062H162.432V1.378H160.606V4.062H154.248V5.514H160.606C160.606 8.748 157.438 11.19 153.654 11.85L154.358 13.324ZM152.576 16.624V18.098H170.484V16.624H152.576ZM186.63 4.348H175.102V8.572H188.764V7.274H176.884V5.58H188.412V1.466H175.058V2.742H186.63V4.348ZM176.774 17.24H188.478V13.038H174.948V14.336H186.696V15.986H174.992V20.364H189.094V19.066H176.774V17.24ZM172.814 10.068V11.432H190.7V10.068H172.814ZM209.974 10.354C207.07 9.518 205.156 7.362 205.156 4.986V4.656H209.512V3.204H205.156V0.806H203.352V3.204H198.974V4.656H203.352V4.986C203.352 7.582 201.35 9.826 198.424 10.706L199.304 12.136C201.614 11.388 203.418 9.826 204.276 7.78C205.156 9.628 206.872 11.08 209.116 11.74L209.974 10.354ZM214.066 14.864V13.412H201.152V14.864H206.652C206.366 16.932 203.572 18.67 200.404 19.154L201.042 20.54C203.946 20.056 206.498 18.67 207.598 16.69C208.72 18.648 211.294 20.078 214.154 20.562L214.836 19.176C211.668 18.67 208.874 16.888 208.544 14.864H214.066ZM213.736 5.778V0.915999H211.932V12.356H213.736V7.274H216.662V5.778H213.736ZM227.572 2.588C230.806 2.588 232.654 3.336 232.654 4.656C232.654 5.976 230.806 6.724 227.572 6.724C224.338 6.724 222.49 5.976 222.49 4.656C222.49 3.336 224.338 2.588 227.572 2.588ZM227.572 8.066C231.906 8.066 234.502 6.878 234.502 4.656C234.502 2.434 231.906 1.224 227.572 1.224C223.238 1.224 220.642 2.434 220.642 4.656C220.642 6.878 223.238 8.066 227.572 8.066ZM222.622 16.998H234.216V12.554H220.796V13.918H232.434V15.678H220.862V20.408H234.81V19H222.622V16.998ZM218.64 9.408V10.86H236.504V9.408H218.64ZM261.255 8.418C257.669 7.89 254.149 5.448 254.149 2.698V1.598H252.257V2.698C252.257 5.514 248.781 7.89 245.195 8.418L245.921 9.87C249.001 9.342 251.971 7.648 253.203 5.25C254.479 7.626 257.449 9.342 260.507 9.87L261.255 8.418ZM262.113 12.004H244.293V13.5H252.257V20.65H254.061V13.5H262.135L262.113 12.004ZM277.295 18.956H273.819V16.294H277.295V18.956ZM277.295 14.952H273.819V12.466H272.125V20.364H278.967V12.466H277.295V14.952ZM275.271 9.364C273.313 9.364 271.905 8.088 271.905 6.306C271.905 4.524 273.313 3.27 275.271 3.27C277.229 3.27 278.637 4.524 278.637 6.306C278.637 8.088 277.229 9.364 275.271 9.364ZM284.313 7.01V11.344H286.139V0.915999H284.313V5.536H280.287C279.913 3.27 277.933 1.774 275.271 1.774C272.323 1.774 270.189 3.6 270.189 6.306C270.189 9.012 272.323 10.86 275.271 10.86C277.977 10.86 279.957 9.32 280.309 7.01H284.313ZM284.555 12.334H282.795V14.006C282.795 16.03 281.563 18.164 279.209 19.176L280.133 20.54C281.849 19.792 283.037 18.428 283.675 16.822C284.269 18.45 285.457 19.792 287.239 20.54L288.141 19.176C285.787 18.252 284.555 16.096 284.555 14.006V12.334ZM306.949 7.054C303.451 6.614 299.975 4.436 299.975 1.994V1.114H298.127V1.994C298.127 4.502 294.673 6.614 291.131 7.054L291.791 8.506C294.871 8.022 297.819 6.482 299.051 4.282C300.305 6.482 303.231 8.022 306.289 8.506L306.949 7.054ZM303.847 18.912H294.145V16.404H303.847V18.912ZM303.847 15.018H294.145V12.708H292.363V20.364H305.629V12.708H303.847V15.018ZM290.097 9.892V11.344H307.961V9.892H290.097ZM313.393 2.808H311.589V15.524H313.217C316.363 15.524 319.465 15.304 322.897 14.6L322.699 13.06C319.421 13.72 316.363 13.984 313.393 13.984V2.808ZM324.723 0.894V20.606H326.527V0.894H324.723ZM333.236 4.282H340.606V2.786H331.432V15.744H332.994C336.712 15.744 339.308 15.612 342.322 15.04L342.124 13.544C339.264 14.05 336.734 14.204 333.236 14.204V4.282ZM349.032 8.682H345.776V0.894H343.972V20.672H345.776V10.178H349.032V8.682ZM351.142 17.812C351.142 17.2693 351.267 16.888 351.516 16.668C351.765 16.448 352.073 16.338 352.44 16.338C352.807 16.338 353.122 16.448 353.386 16.668C353.65 16.888 353.782 17.2693 353.782 17.812C353.782 18.34 353.65 18.7213 353.386 18.956C353.122 19.1907 352.807 19.308 352.44 19.308C352.073 19.308 351.765 19.1907 351.516 18.956C351.267 18.7213 351.142 18.34 351.142 17.812Z" fill="#595959"/>
</svg>
