<svg width="40" height="40" viewBox="0 0 40 40" fill="none" xmlns="http://www.w3.org/2000/svg">
<path d="M14 14.2499V29.4371C13.9999 29.5348 14.0253 29.6308 14.0736 29.7157C14.1219 29.8006 14.1915 29.8714 14.2755 29.9213C14.3595 29.9711 14.455 29.9982 14.5527 29.9999C14.6504 30.0016 14.7468 29.9778 14.8325 29.931L20.7498 26.7023L26.6672 29.931C26.7529 29.9778 26.8493 30.0016 26.947 29.9999C27.0446 29.9982 27.1402 29.9711 27.2242 29.9213C27.3082 29.8714 27.3778 29.8006 27.4261 29.7157C27.4744 29.6308 27.4998 29.5348 27.4997 29.4371V14.2499C27.4997 13.6532 27.2626 13.0809 26.8407 12.659C26.4187 12.237 25.8465 12 25.2497 12H16.2499C15.6532 12 15.0809 12.237 14.659 12.659C14.237 13.0809 14 13.6532 14 14.2499Z" fill="#48C0B7"/>
</svg>
