<svg width="68" height="59" viewBox="0 0 68 59" fill="none" xmlns="http://www.w3.org/2000/svg">
<path d="M50.7013 36.6667H48.0346L47.1346 35.7667C50.4013 31.9667 52.368 27.0667 52.368 21.6667C52.368 9.7 42.668 0 30.7013 0C18.7346 0 9.03464 10 9.03464 21.6667H0.667969L13.468 35L27.3346 21.6667H15.7013C15.7013 13.3333 22.4346 6.66667 30.7013 6.66667C38.968 6.66667 45.7013 13.3667 45.7013 21.6667C45.7013 29.9333 38.968 36.6667 30.7013 36.6667C28.5346 36.6667 26.5013 36.2 24.6346 35.4L19.7013 40.3333C22.9346 42.2333 26.668 43.3333 30.7013 43.3333C36.068 43.3333 40.968 41.3667 44.768 38.1L45.668 39V41.6333L62.368 58.2667L67.3346 53.3333L50.7013 36.6667Z" fill="#DCDCDC"/>
</svg>
