<svg width="22" height="22" viewBox="0 0 22 22" fill="none" xmlns="http://www.w3.org/2000/svg">
<path fill-rule="evenodd" clip-rule="evenodd" d="M16.6183 15.5584C18.0189 13.8927 18.8896 11.7729 18.8896 9.42587C18.8896 4.23975 14.6498 0 9.42587 0C4.20189 0 0 4.23975 0 9.42587C0 14.612 4.23975 18.8517 9.42587 18.8517C11.7729 18.8517 13.8927 18.0189 15.5584 16.5804L20.5096 21.6956C20.8003 21.9959 21.2806 21.9998 21.5762 21.7042C21.8657 21.4147 21.8687 20.9463 21.583 20.6531L16.6183 15.5584ZM9.42587 17.3754C5.07256 17.3754 1.5142 13.817 1.5142 9.42587C1.5142 5.0347 5.07256 1.5142 9.42587 1.5142C13.7792 1.5142 17.3375 5.07256 17.3375 9.42587C17.3375 13.7792 13.817 17.3754 9.42587 17.3754Z" fill="white"/>
</svg>
