<svg width="477" height="605" viewBox="0 0 477 605" fill="none" xmlns="http://www.w3.org/2000/svg">
<g opacity="0.4" filter="url(#filter0_f_1207_37680)">
<path fill-rule="evenodd" clip-rule="evenodd" d="M227.595 295.94C223.206 293.406 216.089 293.406 211.7 295.94L149.89 331.622C147.491 333.007 146.403 334.863 146.626 336.674C146.575 336.949 146.548 337.232 146.548 337.522V353.122C146.548 353.442 146.581 353.754 146.643 354.056C146.355 355.905 147.437 357.812 149.889 359.228L211.7 394.911C216.089 397.445 223.206 397.445 227.595 394.911L289.405 359.228C291.085 358.258 292.122 357.058 292.516 355.803C293.06 355.049 293.38 354.123 293.38 353.123V337.522C293.38 336.432 293.001 335.432 292.367 334.645C291.892 333.538 290.904 332.488 289.405 331.623L227.595 295.94Z" fill="white"/>
</g>
<g opacity="0.4" filter="url(#filter1_f_1207_37680)">
<path fill-rule="evenodd" clip-rule="evenodd" d="M288.422 147.412C287.003 146.592 284.701 146.592 283.282 147.412L263.292 158.952C262.517 159.399 262.165 159.998 262.236 160.583C262.22 160.672 262.211 160.763 262.211 160.856V165.901C262.211 166.005 262.222 166.106 262.242 166.204C262.148 166.802 262.498 167.42 263.292 167.878L283.282 179.418C284.701 180.238 287.003 180.238 288.422 179.418L308.412 167.878C308.957 167.563 309.293 167.174 309.419 166.767C309.595 166.523 309.698 166.224 309.698 165.901V160.856C309.698 160.502 309.574 160.176 309.367 159.921C309.212 159.566 308.893 159.23 308.412 158.952L288.422 147.412Z" fill="white"/>
</g>
<g opacity="0.4" filter="url(#filter2_f_1207_37680)">
<path fill-rule="evenodd" clip-rule="evenodd" d="M35.4203 9.48964C34.0007 8.67012 31.6992 8.67012 30.2796 9.48964L10.2897 21.0298C9.51482 21.4771 9.16291 22.0762 9.23397 22.6613C9.21756 22.7497 9.20898 22.8408 9.20898 22.9339V27.9794C9.20898 28.0831 9.21963 28.1843 9.23988 28.2821C9.14611 28.8806 9.49605 29.4979 10.2897 29.9561L30.2796 41.4962C31.6992 42.3158 34.0007 42.3158 35.4203 41.4962L55.4102 29.9561C55.9551 29.6415 56.2909 29.2518 56.4174 28.8448C56.5926 28.6012 56.6958 28.3023 56.6958 27.9794V22.9339C56.6958 22.5797 56.5717 22.2545 56.3646 21.9994C56.2097 21.6441 55.8915 21.3077 55.4102 21.0298L35.4203 9.48964Z" fill="white"/>
</g>
<g opacity="0.4" filter="url(#filter3_df_1207_37680)">
<rect width="88.7235" height="88.7235" rx="9.17701" transform="matrix(0.866044 0.499967 -0.866044 0.499967 219.647 291.859)" fill="white"/>
</g>
<g opacity="0.4" filter="url(#filter4_df_1207_37680)">
<rect width="28.6939" height="28.6939" rx="2.96792" transform="matrix(0.866044 0.499967 -0.866044 0.499967 285.852 146.094)" fill="white"/>
</g>
<g opacity="0.4" filter="url(#filter5_df_1207_37680)">
<rect width="28.6939" height="28.6939" rx="2.96792" transform="matrix(0.866044 0.499967 -0.866044 0.499967 32.8501 8.16406)" fill="white"/>
</g>
<rect opacity="0.5" width="147.948" height="147.948" rx="18.354" transform="matrix(0.866044 0.499967 -0.866044 0.499967 216.224 282.682)" fill="white"/>
<rect opacity="0.5" width="147.948" height="147.948" rx="18.354" transform="matrix(0.866044 0.499967 -0.866044 0.499967 216.224 279.008)" fill="url(#paint0_linear_1207_37680)" fill-opacity="0.4"/>
<path fill-rule="evenodd" clip-rule="evenodd" d="M227.527 280.9C223.137 278.367 216.021 278.366 211.631 280.9L149.821 316.583C147.422 317.968 146.334 319.824 146.558 321.635C146.506 321.91 146.479 322.193 146.479 322.483V338.083C146.479 338.403 146.512 338.715 146.574 339.017C146.287 340.866 147.369 342.773 149.821 344.189L211.631 379.872C216.021 382.406 223.137 382.406 227.527 379.872L289.337 344.189C291.016 343.219 292.053 342.019 292.447 340.764C292.991 340.01 293.312 339.084 293.312 338.083V322.483C293.312 321.393 292.932 320.393 292.298 319.606C291.823 318.498 290.836 317.449 289.337 316.583L227.527 280.9Z" fill="white"/>
<g filter="url(#filter6_i_1207_37680)">
<rect width="78.1601" height="78.1601" rx="9.17701" transform="matrix(0.866044 0.499967 -0.866044 0.499967 219.579 282.105)" fill="#8CE8CA"/>
</g>
<rect y="2.2941" width="73.5716" height="73.5716" rx="6.88276" transform="matrix(0.866044 0.499967 -0.866044 0.499967 221.566 283.252)" stroke="white" stroke-width="4.58851"/>
<path fill-rule="evenodd" clip-rule="evenodd" d="M288.401 142.544C286.981 141.725 284.68 141.725 283.26 142.544L263.27 154.084C262.495 154.532 262.143 155.131 262.214 155.716C262.198 155.804 262.189 155.895 262.189 155.989V161.034C262.189 161.138 262.2 161.239 262.22 161.337C262.127 161.935 262.477 162.553 263.27 163.011L283.26 174.551C284.68 175.37 286.981 175.37 288.401 174.551L308.391 163.011C308.936 162.696 309.271 162.307 309.398 161.899C309.573 161.656 309.676 161.357 309.676 161.034V155.989C309.676 155.634 309.552 155.309 309.345 155.054C309.19 154.699 308.872 154.362 308.391 154.084L288.401 142.544Z" fill="white"/>
<g filter="url(#filter7_i_1207_37680)">
<rect width="25.2776" height="25.2776" rx="2.96792" transform="matrix(0.866044 0.499967 -0.866044 0.499967 285.83 142.937)" fill="#8CE8CA"/>
</g>
<rect y="0.741932" width="23.7937" height="23.7937" rx="2.22594" transform="matrix(0.866044 0.499967 -0.866044 0.499967 286.473 143.308)" stroke="white" stroke-width="1.48396"/>
<path fill-rule="evenodd" clip-rule="evenodd" d="M35.3988 4.61464C33.9792 3.79512 31.6777 3.79512 30.2581 4.61464L10.2682 16.1548C9.49333 16.6021 9.14143 17.2012 9.21248 17.7863C9.19608 17.8747 9.1875 17.9658 9.1875 18.0589V23.1044C9.1875 23.2081 9.19814 23.3093 9.21839 23.4071C9.12462 24.0056 9.47456 24.6229 10.2682 25.0811L30.2581 36.6212C31.6777 37.4408 33.9792 37.4408 35.3988 36.6212L55.3887 25.0811C55.9337 24.7665 56.2694 24.3768 56.396 23.9698C56.5711 23.7262 56.6743 23.4273 56.6743 23.1044V18.0589C56.6743 17.7047 56.5502 17.3795 56.3431 17.1244C56.1882 16.7691 55.87 16.4327 55.3887 16.1548L35.3988 4.61464Z" fill="white"/>
<g filter="url(#filter8_i_1207_37680)">
<rect width="25.2776" height="25.2776" rx="2.96792" transform="matrix(0.866044 0.499967 -0.866044 0.499967 32.8281 5.0036)" fill="#8CE8CA"/>
</g>
<rect y="0.741932" width="23.7937" height="23.7937" rx="2.22594" transform="matrix(0.866044 0.499967 -0.866044 0.499967 33.4707 5.37459)" stroke="white" stroke-width="1.48396"/>
<path fill-rule="evenodd" clip-rule="evenodd" d="M313.509 62.459C311.384 61.2324 307.94 61.2324 305.815 62.459L275.897 79.7307C274.738 80.3995 274.212 81.2948 274.316 82.1697C274.292 82.3015 274.279 82.4375 274.279 82.5764V90.1278C274.279 90.2833 274.295 90.435 274.326 90.5815C274.185 91.4773 274.709 92.4014 275.897 93.0872L305.815 110.359C307.94 111.585 311.384 111.585 313.509 110.359L343.427 93.0872C344.243 92.6158 344.746 92.0319 344.935 91.422C345.197 91.0576 345.351 90.6107 345.351 90.1278V82.5764C345.351 82.0442 345.164 81.5557 344.852 81.1732C344.618 80.6446 344.144 80.1443 343.427 79.7307L313.509 62.459Z" fill="white"/>
<g filter="url(#filter9_i_1207_37680)">
<rect width="37.8321" height="37.8321" rx="4.44198" transform="matrix(0.866044 0.499967 -0.866044 0.499967 309.661 63.0475)" fill="#8CE8CA"/>
</g>
<rect y="1.11042" width="35.6111" height="35.6111" rx="3.33148" transform="matrix(0.866044 0.499967 -0.866044 0.499967 310.623 63.6028)" stroke="white" stroke-width="2.22099"/>
<g opacity="0.2" filter="url(#filter10_f_1207_37680)">
<path fill-rule="evenodd" clip-rule="evenodd" d="M359.744 408.455C355.355 405.921 348.238 405.921 343.849 408.455L282.039 444.138C279.64 445.523 278.552 447.378 278.775 449.19C278.724 449.464 278.697 449.748 278.697 450.037V465.638C278.697 465.958 278.73 466.27 278.792 466.571C278.504 468.421 279.587 470.328 282.039 471.743L343.849 507.426C348.238 509.96 355.355 509.96 359.744 507.426L421.554 471.743C423.234 470.774 424.271 469.573 424.665 468.319C425.209 467.565 425.529 466.639 425.529 465.638V450.037C425.529 448.948 425.15 447.948 424.516 447.161C424.041 446.053 423.054 445.004 421.554 444.138L359.744 408.455Z" fill="white"/>
</g>
<g opacity="0.1" filter="url(#filter11_df_1207_37680)">
<rect width="88.7235" height="88.7235" rx="9.17701" transform="matrix(0.866044 0.499967 -0.866044 0.499967 351.795 396.125)" fill="white"/>
</g>
<rect opacity="0.5" width="147.948" height="147.948" rx="18.354" transform="matrix(0.866044 0.499967 -0.866044 0.499967 348.373 368.018)" fill="white"/>
<rect opacity="0.5" width="147.948" height="147.948" rx="18.354" transform="matrix(0.866044 0.499967 -0.866044 0.499967 348.373 364.344)" fill="url(#paint1_linear_1207_37680)" fill-opacity="0.4"/>
<path fill-rule="evenodd" clip-rule="evenodd" d="M358.757 316.69C354.368 314.156 347.251 314.156 342.862 316.69L281.052 352.372C278.653 353.757 277.565 355.613 277.788 357.424C277.737 357.699 277.71 357.982 277.71 358.272V373.872C277.71 374.192 277.743 374.504 277.805 374.806C277.517 376.655 278.599 378.562 281.052 379.978L342.862 415.661C347.251 418.195 354.368 418.195 358.757 415.661L420.567 379.978C422.247 379.008 423.284 377.808 423.678 376.553C424.222 375.799 424.542 374.873 424.542 373.873V358.272C424.542 357.182 424.163 356.182 423.529 355.395C423.054 354.288 422.067 353.238 420.567 352.373L358.757 316.69Z" fill="white"/>
<g filter="url(#filter12_i_1207_37680)">
<rect width="78.1601" height="78.1601" rx="9.17701" transform="matrix(0.866044 0.499967 -0.866044 0.499967 350.81 317.895)" fill="#8BEBC3"/>
</g>
<rect y="2.2941" width="73.5716" height="73.5716" rx="6.88276" transform="matrix(0.866044 0.499967 -0.866044 0.499967 352.796 319.042)" stroke="white" stroke-width="4.58851"/>
<g opacity="0.4" filter="url(#filter13_f_1207_37680)">
<path fill-rule="evenodd" clip-rule="evenodd" d="M217.5 469.385C213.11 466.851 205.994 466.851 201.604 469.385L139.794 505.068C137.395 506.453 136.308 508.308 136.531 510.119C136.479 510.394 136.453 510.677 136.453 510.967V526.568C136.453 526.888 136.485 527.2 136.548 527.501C136.26 529.35 137.342 531.257 139.794 532.673L201.604 568.356C205.994 570.89 213.11 570.89 217.5 568.356L279.31 532.673C280.99 531.703 282.026 530.503 282.421 529.249C282.964 528.495 283.285 527.569 283.285 526.568V510.967C283.285 509.878 282.905 508.877 282.271 508.09C281.796 506.983 280.809 505.933 279.31 505.068L217.5 469.385Z" fill="white"/>
</g>
<g opacity="0.4" filter="url(#filter14_df_1207_37680)">
<rect width="88.7235" height="88.7235" rx="9.17701" transform="matrix(0.866044 0.499967 -0.866044 0.499967 209.552 465.297)" fill="white"/>
</g>
<rect opacity="0.5" width="147.948" height="147.948" rx="18.354" transform="matrix(0.866044 0.499967 -0.866044 0.499967 206.129 456.135)" fill="white"/>
<rect opacity="0.5" width="147.948" height="147.948" rx="18.354" transform="matrix(0.866044 0.499967 -0.866044 0.499967 206.129 452.461)" fill="url(#paint2_linear_1207_37680)" fill-opacity="0.4"/>
<path fill-rule="evenodd" clip-rule="evenodd" d="M217.432 454.354C213.042 451.82 205.926 451.82 201.536 454.354L139.726 490.037C137.327 491.421 136.24 493.277 136.463 495.088C136.412 495.363 136.385 495.646 136.385 495.936V511.537C136.385 511.856 136.417 512.168 136.48 512.47C136.192 514.319 137.274 516.226 139.726 517.642L201.536 553.325C205.926 555.859 213.042 555.859 217.432 553.325L279.242 517.642C280.922 516.672 281.959 515.472 282.353 514.217C282.897 513.463 283.217 512.537 283.217 511.537V495.936C283.217 494.847 282.837 493.846 282.204 493.059C281.729 491.952 280.741 490.902 279.242 490.037L217.432 454.354Z" fill="white"/>
<g filter="url(#filter15_i_1207_37680)">
<rect width="78.1601" height="78.1601" rx="9.17701" transform="matrix(0.866044 0.499967 -0.866044 0.499967 209.484 455.55)" fill="#8CE8CA"/>
</g>
<rect y="2.2941" width="73.5716" height="73.5716" rx="6.88276" transform="matrix(0.866044 0.499967 -0.866044 0.499967 211.471 456.697)" stroke="white" stroke-width="4.58851"/>
<defs>
<filter id="filter0_f_1207_37680" x="137.371" y="284.862" width="165.186" height="121.126" filterUnits="userSpaceOnUse" color-interpolation-filters="sRGB">
<feFlood flood-opacity="0" result="BackgroundImageFix"/>
<feBlend mode="normal" in="SourceGraphic" in2="BackgroundImageFix" result="shape"/>
<feGaussianBlur stdDeviation="4.58851" result="effect1_foregroundBlur_1207_37680"/>
</filter>
<filter id="filter1_f_1207_37680" x="259.243" y="143.829" width="53.4222" height="39.1717" filterUnits="userSpaceOnUse" color-interpolation-filters="sRGB">
<feFlood flood-opacity="0" result="BackgroundImageFix"/>
<feBlend mode="normal" in="SourceGraphic" in2="BackgroundImageFix" result="shape"/>
<feGaussianBlur stdDeviation="1.48396" result="effect1_foregroundBlur_1207_37680"/>
</filter>
<filter id="filter2_f_1207_37680" x="6.24106" y="5.90708" width="53.4227" height="39.1717" filterUnits="userSpaceOnUse" color-interpolation-filters="sRGB">
<feFlood flood-opacity="0" result="BackgroundImageFix"/>
<feBlend mode="normal" in="SourceGraphic" in2="BackgroundImageFix" result="shape"/>
<feGaussianBlur stdDeviation="1.48396" result="effect1_foregroundBlur_1207_37680"/>
</filter>
<filter id="filter3_df_1207_37680" x="119.933" y="267.016" width="199.428" height="138.404" filterUnits="userSpaceOnUse" color-interpolation-filters="sRGB">
<feFlood flood-opacity="0" result="BackgroundImageFix"/>
<feColorMatrix in="SourceAlpha" type="matrix" values="0 0 0 0 0 0 0 0 0 0 0 0 0 0 0 0 0 0 127 0" result="hardAlpha"/>
<feOffset dy="3.6708"/>
<feGaussianBlur stdDeviation="11.4713"/>
<feColorMatrix type="matrix" values="0 0 0 0 0 0 0 0 0 0 0 0 0 0 0 0 0 0 0.25 0"/>
<feBlend mode="normal" in2="BackgroundImageFix" result="effect1_dropShadow_1207_37680"/>
<feBlend mode="normal" in="SourceGraphic" in2="effect1_dropShadow_1207_37680" result="shape"/>
<feGaussianBlur stdDeviation="13.7655" result="effect2_foregroundBlur_1207_37680"/>
</filter>
<filter id="filter4_df_1207_37680" x="253.603" y="138.059" width="64.497" height="44.7612" filterUnits="userSpaceOnUse" color-interpolation-filters="sRGB">
<feFlood flood-opacity="0" result="BackgroundImageFix"/>
<feColorMatrix in="SourceAlpha" type="matrix" values="0 0 0 0 0 0 0 0 0 0 0 0 0 0 0 0 0 0 127 0" result="hardAlpha"/>
<feOffset dy="1.18717"/>
<feGaussianBlur stdDeviation="3.7099"/>
<feColorMatrix type="matrix" values="0 0 0 0 0 0 0 0 0 0 0 0 0 0 0 0 0 0 0.25 0"/>
<feBlend mode="normal" in2="BackgroundImageFix" result="effect1_dropShadow_1207_37680"/>
<feBlend mode="normal" in="SourceGraphic" in2="effect1_dropShadow_1207_37680" result="shape"/>
<feGaussianBlur stdDeviation="4.45189" result="effect2_foregroundBlur_1207_37680"/>
</filter>
<filter id="filter5_df_1207_37680" x="0.601601" y="0.129494" width="64.497" height="44.7612" filterUnits="userSpaceOnUse" color-interpolation-filters="sRGB">
<feFlood flood-opacity="0" result="BackgroundImageFix"/>
<feColorMatrix in="SourceAlpha" type="matrix" values="0 0 0 0 0 0 0 0 0 0 0 0 0 0 0 0 0 0 127 0" result="hardAlpha"/>
<feOffset dy="1.18717"/>
<feGaussianBlur stdDeviation="3.7099"/>
<feColorMatrix type="matrix" values="0 0 0 0 0 0 0 0 0 0 0 0 0 0 0 0 0 0 0.25 0"/>
<feBlend mode="normal" in2="BackgroundImageFix" result="effect1_dropShadow_1207_37680"/>
<feBlend mode="normal" in="SourceGraphic" in2="effect1_dropShadow_1207_37680" result="shape"/>
<feGaussianBlur stdDeviation="4.45189" result="effect2_foregroundBlur_1207_37680"/>
</filter>
<filter id="filter6_i_1207_37680" x="156.544" y="284.793" width="126.069" height="91.1336" filterUnits="userSpaceOnUse" color-interpolation-filters="sRGB">
<feFlood flood-opacity="0" result="BackgroundImageFix"/>
<feBlend mode="normal" in="SourceGraphic" in2="BackgroundImageFix" result="shape"/>
<feColorMatrix in="SourceAlpha" type="matrix" values="0 0 0 0 0 0 0 0 0 0 0 0 0 0 0 0 0 0 127 0" result="hardAlpha"/>
<feOffset dy="18.354"/>
<feGaussianBlur stdDeviation="18.354"/>
<feComposite in2="hardAlpha" operator="arithmetic" k2="-1" k3="1"/>
<feColorMatrix type="matrix" values="0 0 0 0 0.785417 0 0 0 0 0.923167 0 0 0 0 0.966667 0 0 0 1 0"/>
<feBlend mode="normal" in2="shape" result="effect1_innerShadow_1207_37680"/>
</filter>
<filter id="filter7_i_1207_37680" x="265.444" y="143.806" width="40.7715" height="29.4734" filterUnits="userSpaceOnUse" color-interpolation-filters="sRGB">
<feFlood flood-opacity="0" result="BackgroundImageFix"/>
<feBlend mode="normal" in="SourceGraphic" in2="BackgroundImageFix" result="shape"/>
<feColorMatrix in="SourceAlpha" type="matrix" values="0 0 0 0 0 0 0 0 0 0 0 0 0 0 0 0 0 0 127 0" result="hardAlpha"/>
<feOffset dy="5.93585"/>
<feGaussianBlur stdDeviation="5.93585"/>
<feComposite in2="hardAlpha" operator="arithmetic" k2="-1" k3="1"/>
<feColorMatrix type="matrix" values="0 0 0 0 0.785417 0 0 0 0 0.923167 0 0 0 0 0.966667 0 0 0 1 0"/>
<feBlend mode="normal" in2="shape" result="effect1_innerShadow_1207_37680"/>
</filter>
<filter id="filter8_i_1207_37680" x="12.4424" y="5.8728" width="40.7715" height="29.4734" filterUnits="userSpaceOnUse" color-interpolation-filters="sRGB">
<feFlood flood-opacity="0" result="BackgroundImageFix"/>
<feBlend mode="normal" in="SourceGraphic" in2="BackgroundImageFix" result="shape"/>
<feColorMatrix in="SourceAlpha" type="matrix" values="0 0 0 0 0 0 0 0 0 0 0 0 0 0 0 0 0 0 127 0" result="hardAlpha"/>
<feOffset dy="5.93585"/>
<feGaussianBlur stdDeviation="5.93585"/>
<feComposite in2="hardAlpha" operator="arithmetic" k2="-1" k3="1"/>
<feColorMatrix type="matrix" values="0 0 0 0 0.785417 0 0 0 0 0.923167 0 0 0 0 0.966667 0 0 0 1 0"/>
<feBlend mode="normal" in2="shape" result="effect1_innerShadow_1207_37680"/>
</filter>
<filter id="filter9_i_1207_37680" x="279.15" y="64.3485" width="61.0215" height="44.1117" filterUnits="userSpaceOnUse" color-interpolation-filters="sRGB">
<feFlood flood-opacity="0" result="BackgroundImageFix"/>
<feBlend mode="normal" in="SourceGraphic" in2="BackgroundImageFix" result="shape"/>
<feColorMatrix in="SourceAlpha" type="matrix" values="0 0 0 0 0 0 0 0 0 0 0 0 0 0 0 0 0 0 127 0" result="hardAlpha"/>
<feOffset dy="8.88396"/>
<feGaussianBlur stdDeviation="8.88396"/>
<feComposite in2="hardAlpha" operator="arithmetic" k2="-1" k3="1"/>
<feColorMatrix type="matrix" values="0 0 0 0 0.785417 0 0 0 0 0.923167 0 0 0 0 0.966667 0 0 0 1 0"/>
<feBlend mode="normal" in2="shape" result="effect1_innerShadow_1207_37680"/>
</filter>
<filter id="filter10_f_1207_37680" x="269.52" y="397.378" width="165.186" height="121.126" filterUnits="userSpaceOnUse" color-interpolation-filters="sRGB">
<feFlood flood-opacity="0" result="BackgroundImageFix"/>
<feBlend mode="normal" in="SourceGraphic" in2="BackgroundImageFix" result="shape"/>
<feGaussianBlur stdDeviation="4.58851" result="effect1_foregroundBlur_1207_37680"/>
</filter>
<filter id="filter11_df_1207_37680" x="252.081" y="371.282" width="199.427" height="138.404" filterUnits="userSpaceOnUse" color-interpolation-filters="sRGB">
<feFlood flood-opacity="0" result="BackgroundImageFix"/>
<feColorMatrix in="SourceAlpha" type="matrix" values="0 0 0 0 0 0 0 0 0 0 0 0 0 0 0 0 0 0 127 0" result="hardAlpha"/>
<feOffset dy="3.6708"/>
<feGaussianBlur stdDeviation="11.4713"/>
<feColorMatrix type="matrix" values="0 0 0 0 0 0 0 0 0 0 0 0 0 0 0 0 0 0 0.25 0"/>
<feBlend mode="normal" in2="BackgroundImageFix" result="effect1_dropShadow_1207_37680"/>
<feBlend mode="normal" in="SourceGraphic" in2="effect1_dropShadow_1207_37680" result="shape"/>
<feGaussianBlur stdDeviation="13.7655" result="effect2_foregroundBlur_1207_37680"/>
</filter>
<filter id="filter12_i_1207_37680" x="287.775" y="320.583" width="126.068" height="91.1336" filterUnits="userSpaceOnUse" color-interpolation-filters="sRGB">
<feFlood flood-opacity="0" result="BackgroundImageFix"/>
<feBlend mode="normal" in="SourceGraphic" in2="BackgroundImageFix" result="shape"/>
<feColorMatrix in="SourceAlpha" type="matrix" values="0 0 0 0 0 0 0 0 0 0 0 0 0 0 0 0 0 0 127 0" result="hardAlpha"/>
<feOffset dy="18.354"/>
<feGaussianBlur stdDeviation="18.354"/>
<feComposite in2="hardAlpha" operator="arithmetic" k2="-1" k3="1"/>
<feColorMatrix type="matrix" values="0 0 0 0 0.570312 0 0 0 0 0.849375 0 0 0 0 0.9375 0 0 0 1 0"/>
<feBlend mode="normal" in2="shape" result="effect1_innerShadow_1207_37680"/>
</filter>
<filter id="filter13_f_1207_37680" x="127.276" y="458.307" width="165.187" height="121.126" filterUnits="userSpaceOnUse" color-interpolation-filters="sRGB">
<feFlood flood-opacity="0" result="BackgroundImageFix"/>
<feBlend mode="normal" in="SourceGraphic" in2="BackgroundImageFix" result="shape"/>
<feGaussianBlur stdDeviation="4.58851" result="effect1_foregroundBlur_1207_37680"/>
</filter>
<filter id="filter14_df_1207_37680" x="109.839" y="440.454" width="199.428" height="138.404" filterUnits="userSpaceOnUse" color-interpolation-filters="sRGB">
<feFlood flood-opacity="0" result="BackgroundImageFix"/>
<feColorMatrix in="SourceAlpha" type="matrix" values="0 0 0 0 0 0 0 0 0 0 0 0 0 0 0 0 0 0 127 0" result="hardAlpha"/>
<feOffset dy="3.6708"/>
<feGaussianBlur stdDeviation="11.4713"/>
<feColorMatrix type="matrix" values="0 0 0 0 0 0 0 0 0 0 0 0 0 0 0 0 0 0 0.25 0"/>
<feBlend mode="normal" in2="BackgroundImageFix" result="effect1_dropShadow_1207_37680"/>
<feBlend mode="normal" in="SourceGraphic" in2="effect1_dropShadow_1207_37680" result="shape"/>
<feGaussianBlur stdDeviation="13.7655" result="effect2_foregroundBlur_1207_37680"/>
</filter>
<filter id="filter15_i_1207_37680" x="146.449" y="458.238" width="126.069" height="91.1336" filterUnits="userSpaceOnUse" color-interpolation-filters="sRGB">
<feFlood flood-opacity="0" result="BackgroundImageFix"/>
<feBlend mode="normal" in="SourceGraphic" in2="BackgroundImageFix" result="shape"/>
<feColorMatrix in="SourceAlpha" type="matrix" values="0 0 0 0 0 0 0 0 0 0 0 0 0 0 0 0 0 0 127 0" result="hardAlpha"/>
<feOffset dy="18.354"/>
<feGaussianBlur stdDeviation="18.354"/>
<feComposite in2="hardAlpha" operator="arithmetic" k2="-1" k3="1"/>
<feColorMatrix type="matrix" values="0 0 0 0 0.785417 0 0 0 0 0.923167 0 0 0 0 0.966667 0 0 0 1 0"/>
<feBlend mode="normal" in2="shape" result="effect1_innerShadow_1207_37680"/>
</filter>
<linearGradient id="paint0_linear_1207_37680" x1="-60.9297" y1="60.9297" x2="79.3974" y2="-4.24007" gradientUnits="userSpaceOnUse">
<stop stop-color="white" stop-opacity="0.78"/>
<stop offset="0.958333" stop-opacity="0.25"/>
</linearGradient>
<linearGradient id="paint1_linear_1207_37680" x1="-60.9297" y1="60.9297" x2="79.3974" y2="-4.24007" gradientUnits="userSpaceOnUse">
<stop stop-color="white" stop-opacity="0.78"/>
<stop offset="0.958333" stop-opacity="0.25"/>
</linearGradient>
<linearGradient id="paint2_linear_1207_37680" x1="-60.9297" y1="60.9297" x2="79.3974" y2="-4.24007" gradientUnits="userSpaceOnUse">
<stop stop-color="white" stop-opacity="0.78"/>
<stop offset="0.958333" stop-opacity="0.25"/>
</linearGradient>
</defs>
</svg>
