<svg width="20" height="11" viewBox="0 0 20 11" fill="none" xmlns="http://www.w3.org/2000/svg">
<path fill-rule="evenodd" clip-rule="evenodd" d="M19.7797 10.2823C19.71 10.3522 19.6272 10.4076 19.5361 10.4454C19.445 10.4832 19.3473 10.5027 19.2487 10.5027C19.15 10.5027 19.0523 10.4832 18.9612 10.4454C18.8701 10.4076 18.7873 10.3522 18.7177 10.2823L10.2487 1.81184L1.77966 10.2823C1.63883 10.4232 1.44782 10.5023 1.24866 10.5023C1.0495 10.5023 0.85849 10.4232 0.717659 10.2823C0.576829 10.1415 0.497713 9.9505 0.497713 9.75134C0.497713 9.55218 0.57683 9.36117 0.717659 9.22034L9.71766 0.22034C9.78733 0.150495 9.87009 0.0950805 9.96121 0.0572708C10.0523 0.0194611 10.15 -4.30557e-07 10.2487 -4.26245e-07C10.3473 -4.21932e-07 10.445 0.0194612 10.5361 0.0572708C10.6272 0.0950805 10.71 0.150495 10.7797 0.22034L19.7797 9.22034C19.8495 9.29001 19.9049 9.37277 19.9427 9.46389C19.9805 9.55501 20 9.65269 20 9.75134C20 9.84999 19.9805 9.94767 19.9427 10.0388C19.9049 10.1299 19.8495 10.2127 19.7797 10.2823Z" fill="#2D2D2D"/>
</svg>
