<svg width="23" height="22" viewBox="0 0 23 22" fill="none" xmlns="http://www.w3.org/2000/svg">
<path fill-rule="evenodd" clip-rule="evenodd" d="M16.8531 15.5584C18.256 13.8927 19.1281 11.7729 19.1281 9.42587C19.1281 4.23975 14.8815 0 9.64909 0C4.41668 0 0.208008 4.23975 0.208008 9.42587C0.208008 14.612 4.4546 18.8517 9.64909 18.8517C11.9999 18.8517 14.1232 18.0189 15.7915 16.5804L20.7515 21.6964C21.0424 21.9964 21.5225 22.0003 21.8181 21.7051C22.1085 21.4152 22.1115 20.9458 21.825 20.6522L16.8531 15.5584ZM9.64909 17.3754C5.28875 17.3754 1.72465 13.817 1.72465 9.42587C1.72465 5.0347 5.28875 1.5142 9.64909 1.5142C14.0094 1.5142 17.5735 5.07256 17.5735 9.42587C17.5735 13.7792 14.0473 17.3754 9.64909 17.3754Z" fill="#48C0B7"/>
</svg>
