<svg width="40" height="40" viewBox="0 0 40 40" fill="none" xmlns="http://www.w3.org/2000/svg">
<path fill-rule="evenodd" clip-rule="evenodd" d="M22.2823 10.2203C22.3522 10.29 22.4076 10.3728 22.4454 10.4639C22.4832 10.555 22.5027 10.6527 22.5027 10.7513C22.5027 10.85 22.4832 10.9477 22.4454 11.0388C22.4076 11.1299 22.3522 11.2127 22.2823 11.2823L13.8118 19.7513L22.2823 28.2203C22.4232 28.3612 22.5023 28.5522 22.5023 28.7513C22.5023 28.9505 22.4232 29.1415 22.2823 29.2823C22.1415 29.4232 21.9505 29.5023 21.7513 29.5023C21.5522 29.5023 21.3612 29.4232 21.2203 29.2823L12.2203 20.2823C12.1505 20.2127 12.0951 20.1299 12.0573 20.0388C12.0195 19.9477 12 19.85 12 19.7513C12 19.6527 12.0195 19.555 12.0573 19.4639C12.0951 19.3728 12.1505 19.29 12.2203 19.2203L21.2203 10.2203C21.29 10.1505 21.3728 10.0951 21.4639 10.0573C21.555 10.0195 21.6527 10 21.7513 10C21.85 10 21.9477 10.0195 22.0388 10.0573C22.1299 10.0951 22.2127 10.1505 22.2823 10.2203V10.2203Z" fill="#9A9FA1"/>
<path fill-rule="evenodd" clip-rule="evenodd" d="M28.2823 10.2203C28.3522 10.29 28.4076 10.3728 28.4454 10.4639C28.4832 10.555 28.5027 10.6527 28.5027 10.7513C28.5027 10.85 28.4832 10.9477 28.4454 11.0388C28.4076 11.1299 28.3522 11.2127 28.2823 11.2823L19.8118 19.7513L28.2823 28.2203C28.3521 28.2901 28.4074 28.3729 28.4451 28.464C28.4829 28.5551 28.5023 28.6527 28.5023 28.7513C28.5023 28.85 28.4829 28.9476 28.4451 29.0387C28.4074 29.1298 28.3521 29.2126 28.2823 29.2823C28.2126 29.3521 28.1298 29.4074 28.0387 29.4451C27.9476 29.4829 27.85 29.5023 27.7513 29.5023C27.6527 29.5023 27.5551 29.4829 27.464 29.4451C27.3729 29.4074 27.2901 29.3521 27.2203 29.2823L18.2203 20.2823C18.1505 20.2127 18.0951 20.1299 18.0573 20.0388C18.0195 19.9477 18 19.85 18 19.7513C18 19.6527 18.0195 19.555 18.0573 19.4639C18.0951 19.3728 18.1505 19.29 18.2203 19.2203L27.2203 10.2203C27.29 10.1505 27.3728 10.0951 27.4639 10.0573C27.555 10.0195 27.6527 10 27.7513 10C27.85 10 27.9477 10.0195 28.0388 10.0573C28.1299 10.0951 28.2127 10.1505 28.2823 10.2203V10.2203Z" fill="#9A9FA1"/>
</svg>
