<svg width="15" height="15" viewBox="0 0 15 15" fill="none" xmlns="http://www.w3.org/2000/svg">
<path d="M15 7.5C15 11.6421 11.6421 15 7.5 15C3.35786 15 0 11.6421 0 7.5C0 3.35786 3.35786 0 7.5 0C11.6421 0 15 3.35786 15 7.5Z" fill="#48C0B7"/>
<path d="M7.93945 2.22656H7.06055C6.98242 2.22656 6.94336 2.26562 6.94336 2.34375V6.94336H2.57812C2.5 6.94336 2.46094 6.98242 2.46094 7.06055V7.93945C2.46094 8.01758 2.5 8.05664 2.57812 8.05664H6.94336V12.6562C6.94336 12.7344 6.98242 12.7734 7.06055 12.7734H7.93945C8.01758 12.7734 8.05664 12.7344 8.05664 12.6562V8.05664H12.4219C12.5 8.05664 12.5391 8.01758 12.5391 7.93945V7.06055C12.5391 6.98242 12.5 6.94336 12.4219 6.94336H8.05664V2.34375C8.05664 2.26562 8.01758 2.22656 7.93945 2.22656Z" fill="white"/>
</svg>
