<svg width="40" height="40" viewBox="0 0 40 40" fill="none" xmlns="http://www.w3.org/2000/svg">
<path fill-rule="evenodd" clip-rule="evenodd" d="M17.1428 11H22.2857C22.9958 11 23.5714 11.5037 23.5714 12.125C23.5714 12.7463 22.9958 13.25 22.2857 13.25H17.1428C16.4328 13.25 15.8571 12.7463 15.8571 12.125C15.8571 11.5037 16.4328 11 17.1428 11ZM15.0428 11.75C15.2414 10.8942 16.1061 10.25 17.1428 10.25H22.2857C23.3224 10.25 24.1871 10.8942 24.3857 11.75H24.8571C26.514 11.75 27.8571 12.9253 27.8571 14.375V25.625C27.8571 27.0747 26.514 28.25 24.8571 28.25H14.5714C12.9146 28.25 11.5714 27.0747 11.5714 25.625V14.375C11.5714 12.9253 12.9146 11.75 14.5714 11.75H15.0428ZM24.3857 12.5H24.8571C26.0406 12.5 27 13.3395 27 14.375V25.625C27 26.6605 26.0406 27.5 24.8571 27.5H14.5714C13.3879 27.5 12.4286 26.6605 12.4286 25.625V14.375C12.4286 13.3395 13.3879 12.5 14.5714 12.5H15.0428C15.2414 13.3558 16.1061 14 17.1428 14H22.2857C23.3224 14 24.1871 13.3558 24.3857 12.5Z" fill="black"/>
</svg>
