<svg width="40" height="40" viewBox="0 0 40 40" fill="none" xmlns="http://www.w3.org/2000/svg">
<path fill-rule="evenodd" clip-rule="evenodd" d="M20.0521 10.6873C14.4519 10.6873 9.93561 14.3003 9.93561 18.6865C9.93561 21.5336 11.8144 24.0265 14.6325 25.4501L13.6787 29.0125C13.6607 29.0659 13.6579 29.1232 13.6707 29.1781C13.6835 29.233 13.7113 29.2832 13.751 29.3232C13.8088 29.3743 13.8833 29.4025 13.9605 29.4027C14.0245 29.3975 14.0852 29.3723 14.1339 29.3304L18.2383 26.5629C18.8442 26.6465 19.4549 26.6899 20.0665 26.6929C25.6595 26.6929 30.183 23.0799 30.183 18.6865C30.183 14.2931 25.645 10.6873 20.0521 10.6873ZM13.4759 17.4219H12.3703C12.2333 17.4259 12.098 17.3908 11.9801 17.3208C11.9278 17.288 11.8828 17.2447 11.848 17.1937C11.8132 17.1427 11.7893 17.0851 11.7778 17.0245C11.7743 16.986 11.7743 16.9474 11.7778 16.9089C11.7744 16.8369 11.7883 16.7652 11.8185 16.6998C11.8487 16.6344 11.8942 16.5772 11.9512 16.5331C12.0772 16.4419 12.2292 16.3937 12.3848 16.3958H15.716C15.8541 16.3909 15.9904 16.4288 16.1062 16.5042C16.1597 16.5355 16.2057 16.5784 16.2407 16.6296C16.2756 16.6809 16.2988 16.7392 16.3085 16.8005C16.312 16.8365 16.312 16.8729 16.3085 16.9089C16.3119 16.9819 16.298 17.0547 16.2678 17.1212C16.2377 17.1878 16.1922 17.2462 16.1351 17.2918C16.0122 17.3829 15.8616 17.4289 15.7088 17.4219H14.6393V21.2228C14.6436 21.3038 14.6311 21.3848 14.6025 21.4606C14.5739 21.5365 14.5298 21.6057 14.4731 21.6636C14.4187 21.719 14.3533 21.7624 14.2811 21.7911C14.209 21.8197 14.1316 21.8329 14.054 21.8298C13.9183 21.8337 13.7855 21.7903 13.6782 21.707C13.5762 21.6256 13.5069 21.5101 13.4831 21.3818C13.476 21.329 13.476 21.2756 13.4831 21.2228L13.4759 17.4219ZM16.8372 16.3886C16.734 16.4558 16.6594 16.5587 16.6276 16.6776L15.0957 20.8326C15.0876 20.8549 15.0777 20.8779 15.0678 20.901C15.0423 20.9603 15.0162 21.0212 15.0162 21.0784C15.0038 21.1501 15.0038 21.2234 15.0162 21.2951C15.0124 21.3359 15.0124 21.3771 15.0162 21.418C15.0374 21.5378 15.1016 21.6457 15.1969 21.7214C15.2946 21.7948 15.4143 21.833 15.5365 21.8298C15.6493 21.844 15.7635 21.8186 15.8597 21.758C15.9559 21.6974 16.0281 21.6053 16.064 21.4974L16.3675 20.6086H18.2679L18.5714 21.4974C18.6082 21.6032 18.6795 21.6936 18.7739 21.7539C18.8683 21.8142 18.9802 21.8409 19.0917 21.8298C19.1642 21.8315 19.2362 21.8183 19.3034 21.791C19.3705 21.7636 19.4313 21.7227 19.4819 21.6709C19.5341 21.6236 19.5754 21.5654 19.6029 21.5005C19.6304 21.4356 19.6433 21.3655 19.6409 21.2951C19.6433 21.2494 19.6433 21.2036 19.6409 21.1578C19.6158 21.0477 19.5844 20.9391 19.5469 20.8326L18.1017 16.7499C18.0672 16.6052 17.9795 16.4788 17.856 16.3958C17.7396 16.3296 17.607 16.2971 17.4731 16.3019H17.1985C17.0723 16.2962 16.9471 16.3263 16.8372 16.3886ZM16.6637 19.7921L17.3502 17.6243L18.0295 19.7921H16.6637ZM19.8064 16.909C19.799 16.7468 19.8562 16.5884 19.9653 16.4682C20.0208 16.4122 20.0874 16.3685 20.1609 16.3399C20.2343 16.3112 20.3129 16.2983 20.3917 16.3019C20.527 16.3004 20.6591 16.3436 20.7674 16.4248C20.8678 16.5096 20.9344 16.6275 20.9553 16.7572C20.9624 16.8075 20.9624 16.8587 20.9553 16.909V20.7099H22.9424C23.0802 20.7081 23.2156 20.7456 23.3327 20.8182C23.3853 20.8506 23.4305 20.8938 23.4653 20.9449C23.5002 20.9959 23.5239 21.0537 23.535 21.1145V21.2229C23.5384 21.2949 23.5245 21.3666 23.4943 21.432C23.4641 21.4974 23.4186 21.5546 23.3616 21.5987C23.2356 21.6899 23.0835 21.738 22.928 21.7359H20.4856C20.33 21.7459 20.1754 21.7055 20.0448 21.6204C19.928 21.533 19.8501 21.4033 19.828 21.2591C19.8227 21.1797 19.8227 21.1 19.828 21.0206L19.8064 16.909ZM23.8243 16.4682C23.7178 16.59 23.661 16.7473 23.6654 16.909L23.622 21.1868C23.6149 21.2395 23.6149 21.2931 23.622 21.3458C23.6458 21.4742 23.715 21.5896 23.8171 21.671C23.9221 21.7532 24.0523 21.7966 24.1856 21.7938C24.2654 21.7972 24.3451 21.7841 24.4196 21.7556C24.4942 21.727 24.5621 21.6834 24.6192 21.6276C24.7257 21.5058 24.7825 21.3485 24.7782 21.1868V19.9801L25.4213 19.308L26.7653 21.4758C26.821 21.5775 26.9003 21.6642 26.9966 21.7287C27.0855 21.7755 27.1852 21.798 27.2856 21.7938C27.4367 21.796 27.5842 21.7476 27.7047 21.6565C27.7688 21.602 27.8187 21.5328 27.8502 21.4548C27.8817 21.3767 27.8937 21.2922 27.8854 21.2085V21.1724C27.8455 21.0509 27.787 20.9363 27.712 20.8327V20.7605L26.2667 18.5204L27.4663 17.2052C27.5192 17.1455 27.5652 17.0802 27.6036 17.0102C27.6412 16.9441 27.6611 16.8694 27.6614 16.7934C27.6579 16.7767 27.6579 16.7595 27.6614 16.7428C27.6643 16.7285 27.6643 16.7137 27.6614 16.6994C27.6511 16.6411 27.6291 16.5855 27.5969 16.5358C27.5646 16.4862 27.5226 16.4435 27.4735 16.4104C27.3692 16.3391 27.2457 16.3013 27.1194 16.302C27.0331 16.3003 26.9479 16.3229 26.8737 16.3671C26.795 16.4298 26.7202 16.4974 26.6497 16.5693L24.8215 18.6794V16.909C24.8251 16.8585 24.8251 16.8077 24.8215 16.7572C24.7982 16.6267 24.729 16.5089 24.6264 16.4249C24.5082 16.3387 24.3638 16.2959 24.2177 16.3038C24.0716 16.3117 23.9326 16.3698 23.8243 16.4682Z" fill="white"/>
</svg>
