<svg width="40" height="40" viewBox="0 0 40 40" fill="none" xmlns="http://www.w3.org/2000/svg">
<path d="M14 14.25C14 13.6533 14.2371 13.081 14.659 12.659C15.081 12.2371 15.6533 12 16.25 12H25.2502C25.8469 12 26.4192 12.2371 26.8412 12.659C27.2632 13.081 27.5002 13.6533 27.5002 14.25V29.4378C27.5002 29.5395 27.4725 29.6394 27.4202 29.7266C27.3679 29.8139 27.2929 29.8854 27.2032 29.9334C27.1135 29.9814 27.0125 30.0042 26.9108 29.9994C26.8092 29.9945 26.7108 29.9622 26.6261 29.9058L20.7501 26.7389L14.8741 29.9058C14.7894 29.9622 14.691 29.9945 14.5894 29.9994C14.4878 30.0042 14.3867 29.9814 14.297 29.9334C14.2073 29.8854 14.1323 29.8139 14.08 29.7266C14.0277 29.6394 14.0001 29.5395 14 29.4378V14.25ZM16.25 13.125C15.9517 13.125 15.6655 13.2435 15.4545 13.4545C15.2435 13.6655 15.125 13.9517 15.125 14.25V28.387L20.4385 25.5947C20.5308 25.5333 20.6392 25.5005 20.7501 25.5005C20.861 25.5005 20.9694 25.5333 21.0617 25.5947L26.3752 28.387V14.25C26.3752 13.9517 26.2567 13.6655 26.0457 13.4545C25.8347 13.2435 25.5486 13.125 25.2502 13.125H16.25Z" fill="black"/>
</svg>
