<svg width="40" height="40" viewBox="0 0 40 40" fill="none" xmlns="http://www.w3.org/2000/svg">
<path fill-rule="evenodd" clip-rule="evenodd" d="M25.875 12.75H26.25C27.0784 12.75 27.75 13.4216 27.75 14.25V14.625C27.75 15.4534 27.0784 16.125 26.25 16.125H25.875C25.0466 16.125 24.375 15.4534 24.375 14.625V14.25C24.375 13.4216 25.0466 12.75 25.875 12.75ZM23.625 14.25C23.625 13.0074 24.6324 12 25.875 12H26.25C27.4926 12 28.5 13.0074 28.5 14.25V14.625C28.5 15.8676 27.4926 16.875 26.25 16.875H25.875C25.0757 16.875 24.3737 16.4582 23.9746 15.8301L16.7814 19.4181C16.8423 19.6223 16.875 19.8386 16.875 20.0625V20.4375C16.875 20.6707 16.8395 20.8956 16.7737 21.1071L23.9526 24.7052C24.3476 24.0574 25.0608 23.625 25.875 23.625H26.25C27.4926 23.625 28.5 24.6324 28.5 25.875V26.25C28.5 27.4926 27.4926 28.5 26.25 28.5H25.875C24.6324 28.5 23.625 27.4926 23.625 26.25V25.875C23.625 25.7137 23.642 25.5563 23.6743 25.4046L16.4339 21.7757C16.024 22.3289 15.3664 22.6875 14.625 22.6875H14.25C13.0074 22.6875 12 21.6801 12 20.4375V20.0625C12 18.8199 13.0074 17.8125 14.25 17.8125H14.625C15.3758 17.8125 16.0408 18.1803 16.4495 18.7455L23.6836 15.1372C23.6453 14.9726 23.625 14.8012 23.625 14.625V14.25ZM25.875 24.375H26.25C27.0784 24.375 27.75 25.0466 27.75 25.875V26.25C27.75 27.0784 27.0784 27.75 26.25 27.75H25.875C25.0466 27.75 24.375 27.0784 24.375 26.25V25.875C24.375 25.0466 25.0466 24.375 25.875 24.375ZM14.625 18.5625H14.25C13.4216 18.5625 12.75 19.2341 12.75 20.0625V20.4375C12.75 21.2659 13.4216 21.9375 14.25 21.9375H14.625C15.4534 21.9375 16.125 21.2659 16.125 20.4375V20.0625C16.125 19.2341 15.4534 18.5625 14.625 18.5625Z" fill="black"/>
</svg>
