<svg width="40" height="40" viewBox="0 0 40 40" fill="none" xmlns="http://www.w3.org/2000/svg">
<path fill-rule="evenodd" clip-rule="evenodd" d="M25.2823 10.2203C25.3522 10.29 25.4076 10.3728 25.4454 10.4639C25.4832 10.555 25.5027 10.6527 25.5027 10.7513C25.5027 10.85 25.4832 10.9477 25.4454 11.0388C25.4076 11.1299 25.3522 11.2127 25.2823 11.2823L16.8118 19.7513L25.2823 28.2203C25.4232 28.3612 25.5023 28.5522 25.5023 28.7513C25.5023 28.9505 25.4232 29.1415 25.2823 29.2823C25.1415 29.4232 24.9505 29.5023 24.7513 29.5023C24.5522 29.5023 24.3612 29.4232 24.2203 29.2823L15.2203 20.2823C15.1505 20.2127 15.0951 20.1299 15.0573 20.0388C15.0195 19.9477 15 19.85 15 19.7513C15 19.6527 15.0195 19.555 15.0573 19.4639C15.0951 19.3728 15.1505 19.29 15.2203 19.2203L24.2203 10.2203C24.29 10.1505 24.3728 10.0951 24.4639 10.0573C24.555 10.0195 24.6527 10 24.7513 10C24.85 10 24.9477 10.0195 25.0388 10.0573C25.1299 10.0951 25.2127 10.1505 25.2823 10.2203Z" fill="#9A9FA1"/>
</svg>
