<svg width="40" height="40" viewBox="0 0 40 40" fill="none" xmlns="http://www.w3.org/2000/svg">
<path fill-rule="evenodd" clip-rule="evenodd" d="M15.2203 10.2203C15.29 10.1505 15.3728 10.0951 15.4639 10.0573C15.555 10.0195 15.6527 10 15.7513 10C15.85 10 15.9477 10.0195 16.0388 10.0573C16.1299 10.0951 16.2127 10.1505 16.2823 10.2203L25.2823 19.2203C25.3522 19.29 25.4076 19.3728 25.4454 19.4639C25.4832 19.555 25.5027 19.6527 25.5027 19.7513C25.5027 19.85 25.4832 19.9477 25.4454 20.0388C25.4076 20.1299 25.3522 20.2127 25.2823 20.2823L16.2823 29.2823C16.1415 29.4232 15.9505 29.5023 15.7513 29.5023C15.5522 29.5023 15.3612 29.4232 15.2203 29.2823C15.0795 29.1415 15.0004 28.9505 15.0004 28.7513C15.0004 28.5522 15.0795 28.3612 15.2203 28.2203L23.6908 19.7513L15.2203 11.2823C15.1505 11.2127 15.0951 11.1299 15.0573 11.0388C15.0195 10.9477 15 10.85 15 10.7513C15 10.6527 15.0195 10.555 15.0573 10.4639C15.0951 10.3728 15.1505 10.29 15.2203 10.2203Z" fill="#9A9FA1"/>
</svg>
