<svg width="40" height="40" viewBox="0 0 40 40" fill="none" xmlns="http://www.w3.org/2000/svg">
<path fill-rule="evenodd" clip-rule="evenodd" d="M10.2672 14.375C10.2672 12.9253 11.6046 11.75 13.2543 11.75H19.6551C21.3049 11.75 22.6422 12.9253 22.6422 14.375V16.0625C22.6422 16.2696 22.4512 16.4375 22.2155 16.4375C21.9798 16.4375 21.7888 16.2696 21.7888 16.0625V14.375C21.7888 13.3395 20.8335 12.5 19.6551 12.5H13.2543C12.0759 12.5 11.1207 13.3395 11.1207 14.375V25.625C11.1207 26.6605 12.0759 27.5 13.2543 27.5H19.6551C20.8335 27.5 21.7888 26.6605 21.7888 25.625V23.9375C21.7888 23.7304 21.9798 23.5625 22.2155 23.5625C22.4512 23.5625 22.6422 23.7304 22.6422 23.9375V25.625C22.6422 27.0747 21.3049 28.25 19.6551 28.25H13.2543C11.6046 28.25 10.2672 27.0747 10.2672 25.625V14.375ZM19.6902 24.0152C19.5235 24.1616 19.2533 24.1616 19.0867 24.0152L15.2721 20.6629C14.8555 20.2968 14.8555 19.7032 15.2721 19.3371L19.0867 15.9848C19.2533 15.8384 19.5235 15.8384 19.6902 15.9848C19.8568 16.1313 19.8568 16.3687 19.6902 16.5152L16.1514 19.625L28.6164 19.625C28.852 19.625 29.0431 19.7929 29.0431 20C29.0431 20.2071 28.852 20.375 28.6164 20.375L16.1514 20.375L19.6902 23.4848C19.8568 23.6313 19.8568 23.8687 19.6902 24.0152Z" fill="#020000"/>
</svg>
